<svg xmlns="http://www.w3.org/2000/svg" width="12" height="12" viewBox="0 0 12 11"><path d="M11.25.008c-.18.023-.371.086-.613.203-.418.2-.903.52-1.52 1.008-.867.691-2.023 1.758-3.25 3a71.38 71.38 0 00-1.941 2.058 39.213 39.213 0 00-1.148-.535C1.98 5.398 1.425 5.22.983 5.16a1.893 1.893 0 00-.449.012.643.643 0 00-.465.32.566.566 0 00-.066.274c0 .09.004.097.031.152.027.055.05.078.223.227.41.355.86.793 1.191 1.152.742.808 1.524 1.902 2.418 3.387.156.261.219.312.38.312a.27.27 0 00.124-.02c.106-.042.149-.097.223-.273.125-.3.375-.848.531-1.172 1.203-2.515 2.64-4.648 4.363-6.469.485-.511.91-.917 1.707-1.636.621-.563.739-.692.79-.883.078-.29-.176-.527-.567-.54-.059 0-.133 0-.168.005zm0 0" fill="#fff" id="surface1"/></svg>